<?xml version="1.0"?>
<svg xmlns="http://www.w3.org/2000/svg" xmlns:xlink="http://www.w3.org/1999/xlink" xmlns:svgjs="http://svgjs.com/svgjs" version="1.1" width="512" height="512" x="0" y="0" viewBox="0 0 511.999 511.999" style="enable-background:new 0 0 512 512" xml:space="preserve" class=""><g>
<g xmlns="http://www.w3.org/2000/svg">
	<g>
		<g>
			<path d="M227.438,511.934c-0.033,0.004-0.066,0.008-0.099,0.013C227.39,511.941,227.441,511.934,227.438,511.934z" fill="#000000" data-original="#000000" style="" class=""/>
			<path d="M227.339,511.947c-0.051,0.007-0.102,0.013-0.099,0.013C227.274,511.957,227.307,511.952,227.339,511.947z" fill="#000000" data-original="#000000" style="" class=""/>
			<path d="M234.013,457.303V129.2c0-4.143-3.357-7.501-7.501-7.501c-4.143,0-7.501,3.357-7.501,7.501v87.04     c-16.97-89.055-23.216-175.328-24.807-201.238h24.807v84.195c0,4.143,3.357,7.501,7.501,7.501c4.143,0,7.501-3.357,7.501-7.501     V7.501c0-4.143-3.357-7.501-7.501-7.501H73.373c-4.143,0-7.501,3.357-7.501,7.501v350.244c0,4.143,3.357,7.501,7.501,7.501     s7.501-3.357,7.501-7.501V117.747c15.007,53.599,33.9,169.17,11.71,379.249h-11.71V387.748c0-4.142-3.357-7.501-7.501-7.501     s-7.501,3.358-7.501,7.501v116.748c0,4.143,3.357,7.501,7.501,7.501h25.943c0.006,0,0.012,0.001,0.018,0.001     c0.007,0,0.014-0.001,0.021-0.001h29.446c0.004,0,98.633-0.063,98.637-0.063c0.161-0.02,0.323-0.043,0.484-0.074     c0.11-0.021,0.217-0.047,0.325-0.073c0.112-0.027,0.224-0.054,0.335-0.086c0.129-0.037,0.256-0.079,0.383-0.122     c0.049-0.017,0.099-0.029,0.148-0.048c0.038-0.014,0.072-0.032,0.11-0.047c0.153-0.059,0.303-0.124,0.451-0.193     c0.085-0.04,0.17-0.08,0.254-0.122c0.126-0.065,0.25-0.134,0.372-0.206c0.099-0.058,0.197-0.116,0.293-0.178     c0.099-0.064,0.194-0.132,0.289-0.2c0.108-0.077,0.215-0.155,0.318-0.238c0.08-0.064,0.156-0.131,0.233-0.198     c0.107-0.093,0.213-0.186,0.314-0.285c0.072-0.07,0.14-0.143,0.208-0.216c0.095-0.101,0.19-0.201,0.279-0.306     c0.072-0.085,0.139-0.173,0.208-0.262c0.076-0.098,0.152-0.196,0.222-0.297c0.074-0.106,0.142-0.216,0.211-0.325     c0.056-0.09,0.113-0.179,0.165-0.271c0.071-0.125,0.135-0.253,0.199-0.383c0.041-0.085,0.084-0.168,0.122-0.254     c0.06-0.135,0.113-0.272,0.166-0.411c0.033-0.089,0.068-0.178,0.098-0.268c0.044-0.132,0.082-0.266,0.118-0.4     c0.029-0.106,0.058-0.212,0.082-0.319c0.027-0.119,0.049-0.24,0.07-0.361c0.023-0.13,0.044-0.26,0.06-0.391     c0.012-0.103,0.021-0.207,0.03-0.311c0.012-0.152,0.02-0.304,0.023-0.457c0.001-0.045,0.007-0.089,0.007-0.135     C234.013,504.474,234.013,457.326,234.013,457.303z M122.314,496.995h-14.648c9.685-92.511,16.929-221.983-0.688-329.62     c-9.509-58.102-22.375-86.077-26.106-93.303V15.002h7.384c8.737,11.599,25.298,43.386,36.933,97.577     c9.268,43.166,14.25,93.848,14.807,150.638C140.674,332.516,134.724,411.14,122.314,496.995z M177.22,496.995L177.22,496.995     c-5.941-28.54-10.987-71.664-3.545-89.195c3.778,4.651,11.76,17.088,25.994,50.001c6.505,15.041,12.343,29.803,15.969,39.194     H177.22z M219.011,465.025c-2.145-5.178-4.428-10.575-6.788-15.974c-22.794-52.159-31.668-57.561-38.195-58.53     c-3.915-0.583-7.588,0.971-10.08,4.257c-16.003,21.105-6.656,78.88-2.023,102.217h-24.448     c12.422-86.566,18.309-165.865,17.502-235.825c-0.669-58.01-5.919-109.811-15.602-153.964     c-10.689-48.734-24.449-77.496-33.258-92.205h40.167c2.717,22.302,12.092,98.015,24.123,181.489     c19.038,132.101,35.387,220.248,48.602,262.064V465.025z M219.011,396.079C193.761,274.814,166.907,60,161.4,15.002h17.775     c1.899,31.325,11.116,159.718,39.835,270.212V396.079z" fill="#000000" data-original="#000000" style="" class=""/>
			<path d="M226.514,511.999c0.242,0,0.484-0.015,0.727-0.039l-0.753,0.037C226.497,511.997,226.505,511.999,226.514,511.999z" fill="#000000" data-original="#000000" style="" class=""/>
		</g>
	</g>
</g>
<g xmlns="http://www.w3.org/2000/svg">
	<g>
		<path d="M438.626,0h-23.174c-0.018,0-0.037,0-0.056,0h-82.442c-0.01,0-0.02,0-0.031,0h-47.436c-4.143,0-7.501,3.357-7.501,7.501    v89.21c0,0.025,0,0.05,0,0.076v101.339c0,0.015,0,0.029,0,0.044v306.327c0,4.143,3.357,7.501,7.501,7.501h153.139    c4.143,0,7.501-3.357,7.501-7.501V397.904c0-4.143-3.357-7.501-7.501-7.501c-4.143,0-7.501,3.357-7.501,7.501v99.091H409.04    c-0.991-86.295,1.245-207.445,16.727-308.985c1.787-11.721,3.597-22.145,5.359-31.352v211.244c0,4.143,3.357,7.501,7.501,7.501    c4.143,0,7.501-3.357,7.501-7.501V96.67c0-0.013,0-0.027,0-0.04V7.501C446.127,3.357,442.77,0,438.626,0z M335.515,149.549    c3.041,0,5.892-1.446,7.829-4.035c2.574-3.439,7.932-10.597,3.084-76.813c-1.577-21.54-3.75-42.494-4.979-53.699h14.1    c3.622,26.92,15.721,133.032-9.974,187.959c-4.138,8.846-7.266,10.529-8.148,10.425c-0.468-0.055-11.649-1.987-28.998-57.874    c-8.493-27.36-14.431-54.784-15.441-59.546V75.476c1.785,4.641,3.66,9.427,5.583,14.213    c21.454,53.412,29.005,58.738,35.437,59.742C334.513,149.51,335.016,149.549,335.515,149.549z M292.987,15.002h33.37    c1.148,10.357,3.375,31.499,5.01,53.447c2.551,34.275,2.271,51.485,1.473,60.066c-9.016-15.319-25.068-53.881-39.852-96.518    V15.002z M319.09,496.996h-26.102V253.663C306.354,309.273,323.43,401.529,319.09,496.996z M334.106,496.995    c3.515-79.277-7.496-155.534-17.553-206.23c-10.299-51.918-21.36-87.143-23.566-93.953v-40.49h0.001    c0.357,1.179,0.717,2.359,1.083,3.54c9.523,30.698,22.858,66.219,41.604,68.423c0.667,0.079,1.325,0.118,1.978,0.118    c8.351-0.001,15.58-6.41,21.509-19.086c13.258-28.339,19.003-71.203,17.076-127.4c-1.006-29.343-3.874-54.333-5.541-66.915h35.616    c-4.542,23.313-17.032,89.517-28.621,169.832c-12.973,89.903-27.363,215.914-23.483,312.162H334.106z M431.124,95.361    c-2.312,6.249-11.359,32.942-20.005,89.188c-15.782,102.67-18.08,225.161-17.082,312.447H369.22    c-7.022-170.065,43.873-438.553,52.382-481.994h9.523V95.361z" fill="#000000" data-original="#000000" style="" class=""/>
	</g>
</g>
<g xmlns="http://www.w3.org/2000/svg">
</g>
<g xmlns="http://www.w3.org/2000/svg">
</g>
<g xmlns="http://www.w3.org/2000/svg">
</g>
<g xmlns="http://www.w3.org/2000/svg">
</g>
<g xmlns="http://www.w3.org/2000/svg">
</g>
<g xmlns="http://www.w3.org/2000/svg">
</g>
<g xmlns="http://www.w3.org/2000/svg">
</g>
<g xmlns="http://www.w3.org/2000/svg">
</g>
<g xmlns="http://www.w3.org/2000/svg">
</g>
<g xmlns="http://www.w3.org/2000/svg">
</g>
<g xmlns="http://www.w3.org/2000/svg">
</g>
<g xmlns="http://www.w3.org/2000/svg">
</g>
<g xmlns="http://www.w3.org/2000/svg">
</g>
<g xmlns="http://www.w3.org/2000/svg">
</g>
<g xmlns="http://www.w3.org/2000/svg">
</g>
</g></svg>
